<svg xmlns="http://www.w3.org/2000/svg" width="32" height="32" viewBox="0 0 32 32" fill="none">
  <rect width="32" height="32" rx="8" fill="url(#g)"/>
  <path d="M16 8c-2.2 0-4 1.8-4 4v1.5a1 1 0 0 0 2 0V12a2 2 0 0 1 4 0v1.5a1 1 0 0 0 2 0V12c0-2.2-1.8-4-4-4z" fill="#fff"/>
  <path d="M12 16v4a4 4 0 0 0 8 0v-4h-2v4a2 2 0 0 1-4 0v-4h-2z" fill="#fff" opacity="0.7"/>
  <path d="M10 15h12v1H10z" fill="#fff"/>
  <defs>
    <linearGradient id="g" x1="0" y1="0" x2="32" y2="32" gradientUnits="userSpaceOnUse">
      <stop stop-color="#7c3aed"/>
      <stop offset="1" stop-color="#3b82f6"/>
    </linearGradient>
  </defs>
</svg>
